<svg xmlns="http://www.w3.org/2000/svg" xmlns:xlink="http://www.w3.org/1999/xlink" width="400" zoomAndPan="magnify" viewBox="0 0 300 225" height="300" preserveAspectRatio="xMidYMid meet" version="1.0"><defs><clipPath id="6434840c17"><path d="M 26.363281 4.28125 L 273.863281 4.28125 L 273.863281 221 L 26.363281 221 Z M 26.363281 4.28125 " clip-rule="nonzero"/></clipPath><clipPath id="52ac476153"><path d="M 26.363281 4.28125 L 273.863281 4.28125 L 273.863281 221.03125 L 26.363281 221.03125 Z M 26.363281 4.28125 " clip-rule="nonzero"/></clipPath></defs><rect x="-30" width="360" fill="#ffffff" y="-22.5" height="270" fill-opacity="1"/><rect x="-30" width="360" fill="#d1d2d2" y="-22.5" height="270" fill-opacity="1"/><g clip-path="url(#6434840c17)"><path fill="#ffffff" d="M 26.675781 4.589844 L 273.554688 4.589844 L 273.554688 220.722656 L 26.675781 220.722656 Z M 26.675781 4.589844 " fill-opacity="1" fill-rule="nonzero"/></g><g clip-path="url(#52ac476153)"><path stroke-linecap="butt" transform="matrix(0.617204, 0, 0, 0.617521, 26.365645, 4.280958)" fill="none" stroke-linejoin="miter" d="M 0.502486 0.500203 L 400.49791 0.500203 L 400.49791 350.500758 L 0.502486 350.500758 Z M 0.502486 0.500203 " stroke="#cbcbcb" stroke-width="1" stroke-opacity="1" stroke-miterlimit="10"/></g><path fill="#f6f6f6" d="M 87.015625 97.664062 C 121.933594 97.664062 127.382812 172.53125 141.492188 172.53125 C 155.609375 172.53125 161.839844 127.78125 181.796875 127.78125 C 209.226562 127.78125 222.949219 208.714844 269.09375 208.714844 C 269.152344 208.714844 269.214844 208.714844 269.273438 208.714844 L 269.273438 8.414062 L 30.667969 8.414062 L 30.667969 194.039062 C 38.898438 163.878906 60.046875 97.664062 87.015625 97.664062 Z M 216.59375 36.675781 C 235.355469 36.675781 250.566406 51.890625 250.566406 70.664062 C 250.566406 89.433594 235.355469 104.648438 216.59375 104.648438 C 197.835938 104.648438 182.628906 89.433594 182.628906 70.664062 C 182.625 51.890625 197.835938 36.675781 216.59375 36.675781 Z M 216.59375 36.675781 " fill-opacity="1" fill-rule="nonzero"/><path fill="#d1d2d2" d="M 269.273438 216.269531 L 269.273438 208.714844 C 269.210938 208.714844 269.152344 208.714844 269.089844 208.714844 C 222.949219 208.714844 209.230469 127.78125 181.796875 127.78125 C 161.839844 127.78125 155.605469 172.53125 141.492188 172.53125 C 127.382812 172.53125 121.933594 97.664062 87.015625 97.664062 C 60.042969 97.664062 38.898438 163.878906 30.664062 194.039062 L 30.664062 216.269531 Z M 269.273438 216.269531 " fill-opacity="1" fill-rule="nonzero"/><path fill="#d1d2d2" d="M 250.566406 70.660156 C 250.566406 71.773438 250.511719 72.882812 250.402344 73.992188 C 250.292969 75.097656 250.128906 76.199219 249.914062 77.289062 C 249.695312 78.382812 249.425781 79.460938 249.101562 80.527344 C 248.78125 81.589844 248.40625 82.636719 247.980469 83.667969 C 247.554688 84.695312 247.078125 85.699219 246.554688 86.683594 C 246.03125 87.664062 245.457031 88.617188 244.839844 89.542969 C 244.222656 90.46875 243.558594 91.359375 242.855469 92.222656 C 242.148438 93.082031 241.402344 93.90625 240.617188 94.691406 C 239.828125 95.480469 239.003906 96.226562 238.144531 96.933594 C 237.285156 97.640625 236.394531 98.300781 235.46875 98.921875 C 234.542969 99.539062 233.589844 100.109375 232.609375 100.632812 C 231.628906 101.160156 230.621094 101.636719 229.59375 102.0625 C 228.566406 102.488281 227.519531 102.859375 226.457031 103.183594 C 225.390625 103.507812 224.3125 103.777344 223.222656 103.996094 C 222.132812 104.210938 221.03125 104.375 219.925781 104.484375 C 218.816406 104.59375 217.707031 104.648438 216.59375 104.648438 C 215.480469 104.648438 214.371094 104.59375 213.265625 104.484375 C 212.15625 104.375 211.058594 104.210938 209.96875 103.996094 C 208.875 103.777344 207.796875 103.507812 206.734375 103.183594 C 205.667969 102.859375 204.621094 102.488281 203.59375 102.0625 C 202.566406 101.636719 201.5625 101.160156 200.582031 100.632812 C 199.601562 100.109375 198.648438 99.539062 197.722656 98.921875 C 196.796875 98.300781 195.90625 97.640625 195.042969 96.933594 C 194.183594 96.226562 193.359375 95.480469 192.574219 94.691406 C 191.789062 93.90625 191.042969 93.082031 190.335938 92.222656 C 189.628906 91.359375 188.96875 90.46875 188.347656 89.542969 C 187.730469 88.617188 187.160156 87.664062 186.636719 86.683594 C 186.109375 85.699219 185.636719 84.695312 185.210938 83.667969 C 184.785156 82.636719 184.410156 81.589844 184.085938 80.527344 C 183.765625 79.460938 183.496094 78.382812 183.277344 77.289062 C 183.058594 76.199219 182.898438 75.097656 182.789062 73.992188 C 182.679688 72.882812 182.625 71.773438 182.625 70.660156 C 182.625 69.546875 182.679688 68.4375 182.789062 67.328125 C 182.898438 66.222656 183.058594 65.121094 183.277344 64.03125 C 183.496094 62.9375 183.765625 61.859375 184.085938 60.792969 C 184.410156 59.730469 184.785156 58.683594 185.210938 57.652344 C 185.636719 56.625 186.109375 55.621094 186.636719 54.636719 C 187.160156 53.65625 187.730469 52.703125 188.347656 51.777344 C 188.96875 50.851562 189.628906 49.960938 190.335938 49.097656 C 191.042969 48.238281 191.789062 47.414062 192.574219 46.628906 C 193.359375 45.839844 194.183594 45.09375 195.042969 44.386719 C 195.90625 43.679688 196.796875 43.019531 197.722656 42.398438 C 198.648438 41.78125 199.601562 41.210938 200.582031 40.6875 C 201.5625 40.160156 202.566406 39.6875 203.59375 39.257812 C 204.621094 38.832031 205.667969 38.460938 206.734375 38.136719 C 207.796875 37.8125 208.875 37.542969 209.96875 37.324219 C 211.058594 37.109375 212.15625 36.945312 213.265625 36.835938 C 214.371094 36.726562 215.480469 36.671875 216.59375 36.671875 C 217.707031 36.671875 218.816406 36.726562 219.925781 36.835938 C 221.03125 36.945312 222.132812 37.109375 223.222656 37.324219 C 224.3125 37.542969 225.390625 37.8125 226.457031 38.136719 C 227.519531 38.460938 228.566406 38.832031 229.59375 39.257812 C 230.621094 39.6875 231.628906 40.160156 232.609375 40.6875 C 233.589844 41.210938 234.542969 41.78125 235.46875 42.398438 C 236.394531 43.019531 237.285156 43.679688 238.144531 44.386719 C 239.003906 45.09375 239.828125 45.839844 240.617188 46.628906 C 241.402344 47.414062 242.148438 48.238281 242.855469 49.097656 C 243.558594 49.960938 244.222656 50.851562 244.839844 51.777344 C 245.457031 52.703125 246.03125 53.65625 246.554688 54.636719 C 247.078125 55.621094 247.554688 56.625 247.980469 57.652344 C 248.40625 58.683594 248.78125 59.730469 249.101562 60.792969 C 249.425781 61.859375 249.695312 62.9375 249.914062 64.03125 C 250.128906 65.121094 250.292969 66.222656 250.402344 67.328125 C 250.511719 68.4375 250.566406 69.546875 250.566406 70.660156 Z M 250.566406 70.660156 " fill-opacity="1" fill-rule="nonzero"/></svg>