<svg xmlns="http://www.w3.org/2000/svg" xmlns:xlink="http://www.w3.org/1999/xlink" width="400" zoomAndPan="magnify" viewBox="0 0 300 225" height="300" preserveAspectRatio="xMidYMid meet" version="1.0"><defs><g/><clipPath id="ef4985e9b2"><path d="M 15.46875 28.910156 L 128 28.910156 L 128 181 L 15.46875 181 Z M 15.46875 28.910156 " clip-rule="nonzero"/></clipPath><clipPath id="461b035cdd"><path d="M 75.46875 29.320312 L 151.21875 29.320312 L 151.21875 181.140625 L 75.46875 181.140625 Z M 75.46875 29.320312 " clip-rule="nonzero"/></clipPath><clipPath id="3f33225b49"><path d="M 155.546875 129.113281 L 286 129.113281 L 286 156.101562 L 155.546875 156.101562 Z M 155.546875 129.113281 " clip-rule="nonzero"/></clipPath></defs><rect x="-30" width="360" fill="#ffffff" y="-22.5" height="270" fill-opacity="1"/><rect x="-30" width="360" fill="#14213d" y="-22.5" height="270" fill-opacity="1"/><g clip-path="url(#ef4985e9b2)"><path fill="#fca311" d="M 78.101562 165.605469 C 71.421875 154.476562 65.730469 142.339844 61.390625 129.765625 L 28.277344 129.765625 L 28.652344 130.730469 L 29.484375 132.726562 L 49.261719 132.589844 L 31.28125 136.886719 L 31.570312 137.539062 L 33.097656 140.8125 L 34.671875 143.992188 L 36.285156 147.074219 L 37.933594 150.050781 L 38.082031 150.300781 L 57.117188 150.167969 L 40.390625 154.164062 L 41.332031 155.675781 L 43.070312 158.3125 L 44.835938 160.828125 L 46.621094 163.214844 L 47.066406 163.773438 L 65.796875 163.644531 L 50.074219 167.398438 L 50.238281 167.589844 L 52.066406 169.566406 L 53.898438 171.398438 L 55.738281 173.074219 L 57.578125 174.597656 L 59.417969 175.960938 L 61.25 177.15625 L 63.070312 178.183594 L 64.882812 179.03125 L 66.679688 179.703125 L 68.457031 180.1875 L 70.214844 180.484375 L 78.101562 180.5 Z M 78.101562 129.765625 L 78.101562 150.730469 C 74.382812 144.015625 71.027344 136.992188 68.105469 129.765625 Z M 78.101562 28.996094 L 33.304688 28.910156 L 31.691406 29.199219 L 30.148438 29.679688 L 28.679688 30.34375 L 27.28125 31.1875 L 25.953125 32.207031 L 24.703125 33.398438 L 23.527344 34.753906 L 22.429688 36.269531 L 21.855469 37.207031 L 38.238281 40.941406 L 20.121094 40.546875 L 19.59375 41.742188 L 18.808594 43.855469 L 18.105469 46.105469 L 17.480469 48.488281 L 17.359375 49.0625 L 35.765625 53.257812 L 16.621094 52.839844 L 16.484375 53.632812 L 16.113281 56.382812 L 15.824219 59.25 L 15.625 62.222656 L 15.511719 65.300781 L 15.507812 65.699219 L 35.253906 67.984375 L 15.511719 69.941406 L 15.546875 71.746094 L 15.703125 75.105469 L 15.949219 78.550781 L 16.0625 79.738281 L 52.128906 79.738281 C 51.929688 65.238281 54.25 52.738281 58.609375 42.78125 C 55.722656 53.230469 54.671875 65.691406 55.832031 79.738281 L 72.851562 79.738281 L 72.75 78.660156 L 72.503906 75.214844 L 72.351562 71.855469 L 72.285156 68.585938 L 72.3125 65.410156 L 72.425781 62.332031 L 72.625 59.359375 L 72.914062 56.492188 L 73.285156 53.742188 L 73.742188 51.109375 L 74.28125 48.597656 L 74.90625 46.214844 L 75.609375 43.964844 L 76.394531 41.851562 L 77.261719 39.878906 L 78.101562 38.261719 Z M 78.101562 150.730469 C 84.152344 161.664062 91.164062 171.765625 98.8125 180.542969 L 127.015625 180.597656 L 125.257812 180.296875 L 123.480469 179.8125 L 121.683594 179.140625 L 119.871094 178.292969 L 118.050781 177.265625 L 116.21875 176.070312 L 114.378906 174.707031 L 112.539062 173.183594 L 110.699219 171.507812 L 108.867188 169.675781 L 107.039062 167.699219 L 105.222656 165.582031 L 103.421875 163.324219 L 101.636719 160.9375 L 99.871094 158.421875 L 98.132812 155.785156 L 96.417969 153.03125 L 94.734375 150.160156 L 93.085938 147.183594 L 91.472656 144.101562 L 89.898438 140.921875 L 88.371094 137.648438 L 86.886719 134.289062 L 85.453125 130.839844 L 85.035156 129.765625 L 78.101562 129.765625 Z M 78.101562 180.5 L 78.101562 165.605469 C 81.226562 170.816406 84.570312 175.808594 88.09375 180.519531 Z M 90.109375 29.019531 L 78.101562 28.996094 L 78.101562 38.261719 L 78.207031 38.054688 L 79.230469 36.382812 L 80.328125 34.863281 L 81.503906 33.507812 L 82.753906 32.316406 L 84.082031 31.296875 L 85.480469 30.453125 L 86.953125 29.789062 L 88.492188 29.308594 L 90.109375 29.019531 " fill-opacity="1" fill-rule="evenodd"/></g><g clip-path="url(#461b035cdd)"><path fill="#fca311" d="M 88.074219 129.765625 C 99.804688 159.621094 117.40625 181.113281 131.964844 181.140625 C 144.550781 181.164062 151.597656 165.152344 151.472656 141.542969 C 150.527344 158.441406 144.730469 169.527344 135.09375 169.507812 C 123.386719 169.488281 109.355469 153.070312 99.46875 129.765625 Z M 133.828125 69.078125 C 122.453125 45.445312 107.597656 29.390625 95.011719 29.367188 C 80.59375 29.339844 73.445312 50.359375 76.027344 79.738281 L 87.457031 79.738281 C 86.21875 56.941406 92.257812 41 103.808594 41.023438 C 113.445312 41.039062 124.648438 52.15625 133.828125 69.078125 " fill-opacity="1" fill-rule="evenodd"/></g><path fill="#fca311" d="M 134.320312 79.738281 C 126.027344 60.328125 114.777344 47.257812 105.699219 48.136719 C 97.34375 48.945312 92.996094 61.351562 93.566406 78.953125 C 93.84375 66.285156 97.464844 57.636719 103.859375 57.015625 C 110.902344 56.335938 119.480469 65.558594 126.269531 79.738281 Z M 106.769531 131.832031 C 114.804688 148.707031 124.992188 159.703125 133.347656 158.894531 C 141.429688 158.113281 145.761719 146.46875 145.515625 129.765625 L 137.535156 129.765625 C 137.105469 141.933594 133.503906 150.179688 127.265625 150.78125 C 120.871094 151.402344 113.207031 143.847656 106.769531 131.832031 " fill-opacity="1" fill-rule="evenodd"/><g fill="#ffffff" fill-opacity="1"><g transform="translate(16.029283, 125.57564)"><g><path d="M 44.34375 -42.21875 L 44.34375 -33.78125 L 27.453125 -33.78125 L 27.453125 0 L 19 0 L 19 -33.78125 L 2.109375 -33.78125 L 2.109375 -42.21875 Z M 44.34375 -42.21875 "/></g></g></g><g fill="#ffffff" fill-opacity="1"><g transform="translate(62.471697, 125.57564)"><g><path d="M 35.890625 0 L 10.5625 0 C 9.007812 0 7.585938 -0.375 6.296875 -1.125 C 5.015625 -1.882812 3.992188 -2.90625 3.234375 -4.1875 C 2.484375 -5.476562 2.109375 -6.894531 2.109375 -8.4375 L 2.109375 -33.78125 C 2.109375 -35.332031 2.484375 -36.75 3.234375 -38.03125 C 3.992188 -39.3125 5.015625 -40.328125 6.296875 -41.078125 C 7.585938 -41.835938 9.007812 -42.21875 10.5625 -42.21875 L 35.890625 -42.21875 C 37.441406 -42.21875 38.859375 -41.835938 40.140625 -41.078125 C 41.421875 -40.328125 42.441406 -39.3125 43.203125 -38.03125 C 43.960938 -36.75 44.34375 -35.332031 44.34375 -33.78125 L 44.34375 -8.4375 C 44.34375 -6.925781 43.960938 -5.53125 43.203125 -4.25 C 42.441406 -2.96875 41.425781 -1.9375 40.15625 -1.15625 C 38.894531 -0.382812 37.472656 0 35.890625 0 Z M 10.5625 -33.78125 L 10.5625 -8.4375 L 35.890625 -8.4375 L 35.890625 -33.78125 Z M 10.5625 -33.78125 "/></g></g></g><g fill="#ffffff" fill-opacity="1"><g transform="translate(108.914111, 125.57564)"><g><path d="M 35.890625 0 L 10.5625 0 C 9.007812 0 7.585938 -0.375 6.296875 -1.125 C 5.015625 -1.882812 3.992188 -2.90625 3.234375 -4.1875 C 2.484375 -5.476562 2.109375 -6.894531 2.109375 -8.4375 L 2.109375 -33.78125 C 2.109375 -35.332031 2.484375 -36.75 3.234375 -38.03125 C 3.992188 -39.3125 5.015625 -40.328125 6.296875 -41.078125 C 7.585938 -41.835938 9.007812 -42.21875 10.5625 -42.21875 L 35.890625 -42.21875 C 37.441406 -42.21875 38.859375 -41.835938 40.140625 -41.078125 C 41.421875 -40.328125 42.441406 -39.3125 43.203125 -38.03125 C 43.960938 -36.75 44.34375 -35.332031 44.34375 -33.78125 L 44.34375 -8.4375 C 44.34375 -6.925781 43.960938 -5.53125 43.203125 -4.25 C 42.441406 -2.96875 41.425781 -1.9375 40.15625 -1.15625 C 38.894531 -0.382812 37.472656 0 35.890625 0 Z M 10.5625 -33.78125 L 10.5625 -8.4375 L 35.890625 -8.4375 L 35.890625 -33.78125 Z M 10.5625 -33.78125 "/></g></g></g><g fill="#ffffff" fill-opacity="1"><g transform="translate(155.356526, 125.57564)"><g><path d="M 44.34375 0 L 10.5625 0 C 9.007812 0 7.585938 -0.375 6.296875 -1.125 C 5.015625 -1.882812 3.992188 -2.90625 3.234375 -4.1875 C 2.484375 -5.476562 2.109375 -6.894531 2.109375 -8.4375 L 2.109375 -42.21875 L 10.5625 -42.21875 L 10.5625 -8.4375 L 44.34375 -8.4375 Z M 44.34375 0 "/></g></g></g><g clip-path="url(#3f33225b49)"><path fill="#fca311" d="M 162.570312 148.09375 L 155.617188 134.527344 L 192.671875 146.085938 L 178.464844 129.113281 C 178.464844 129.113281 216.28125 145.472656 223.675781 145.324219 L 214.738281 134.992188 C 214.738281 134.992188 239.742188 143.78125 244.664062 141.945312 L 240.351562 137.121094 C 240.351562 137.121094 274.148438 143.757812 285.710938 140.355469 C 285.710938 140.355469 268.738281 146.378906 251.449219 142.976562 L 254.679688 147.136719 C 254.679688 147.136719 242.949219 148.214844 234.15625 146.355469 L 238.785156 153.308594 C 238.785156 153.308594 214.246094 153.164062 204.230469 148.679688 L 208.539062 156.078125 C 208.566406 156.101562 177.855469 153.480469 162.570312 148.09375 Z M 162.570312 148.09375 " fill-opacity="1" fill-rule="nonzero"/></g><g fill="#ffffff" fill-opacity="1"><g transform="translate(203.616335, 125.513435)"><g><path d="M 26.140625 -19.921875 L 26.140625 -14.9375 C 26.140625 -14.25 25.894531 -13.660156 25.40625 -13.171875 C 24.925781 -12.691406 24.34375 -12.453125 23.65625 -12.453125 C 24.34375 -12.453125 24.925781 -12.207031 25.40625 -11.71875 C 25.894531 -11.226562 26.140625 -10.640625 26.140625 -9.953125 L 26.140625 -4.984375 C 26.140625 -4.085938 25.914062 -3.257812 25.46875 -2.5 C 25.03125 -1.75 24.4375 -1.144531 23.6875 -0.6875 C 22.9375 -0.226562 22.097656 0 21.171875 0 L 1.25 0 L 1.25 -24.90625 L 21.171875 -24.90625 C 22.097656 -24.90625 22.9375 -24.675781 23.6875 -24.21875 C 24.4375 -23.757812 25.03125 -23.15625 25.46875 -22.40625 C 25.914062 -21.664062 26.140625 -20.835938 26.140625 -19.921875 Z M 21.171875 -19.921875 L 6.21875 -19.921875 L 6.21875 -14.9375 L 21.171875 -14.9375 Z M 6.21875 -4.984375 L 21.171875 -4.984375 L 21.171875 -9.953125 L 6.21875 -9.953125 Z M 6.21875 -4.984375 "/></g></g></g><g fill="#ffffff" fill-opacity="1"><g transform="translate(231.006824, 125.513435)"><g><path d="M 21.171875 0 L 6.21875 0 C 5.3125 0 4.476562 -0.222656 3.71875 -0.671875 C 2.957031 -1.117188 2.351562 -1.71875 1.90625 -2.46875 C 1.46875 -3.226562 1.25 -4.066406 1.25 -4.984375 L 1.25 -19.921875 C 1.25 -20.835938 1.46875 -21.671875 1.90625 -22.421875 C 2.351562 -23.179688 2.957031 -23.785156 3.71875 -24.234375 C 4.476562 -24.679688 5.3125 -24.90625 6.21875 -24.90625 L 21.171875 -24.90625 C 22.078125 -24.90625 22.910156 -24.679688 23.671875 -24.234375 C 24.429688 -23.785156 25.03125 -23.179688 25.46875 -22.421875 C 25.914062 -21.671875 26.140625 -20.835938 26.140625 -19.921875 L 26.140625 -4.984375 C 26.140625 -4.085938 25.914062 -3.257812 25.46875 -2.5 C 25.03125 -1.75 24.4375 -1.144531 23.6875 -0.6875 C 22.9375 -0.226562 22.097656 0 21.171875 0 Z M 6.21875 -19.921875 L 6.21875 -4.984375 L 21.171875 -4.984375 L 21.171875 -19.921875 Z M 6.21875 -19.921875 "/></g></g></g><g fill="#ffffff" fill-opacity="1"><g transform="translate(258.397314, 125.513435)"><g><path d="M 26.140625 -24.90625 L 26.140625 -21.40625 C 26.140625 -20.707031 25.890625 -20.109375 25.390625 -19.609375 L 18.234375 -12.453125 L 25.390625 -5.296875 C 25.890625 -4.796875 26.140625 -4.191406 26.140625 -3.484375 L 26.140625 0 L 21.171875 0 L 21.171875 -2.484375 L 13.6875 -9.953125 L 6.21875 -2.484375 L 6.21875 0 L 1.25 0 L 1.25 -3.484375 C 1.25 -4.191406 1.492188 -4.796875 1.984375 -5.296875 L 9.15625 -12.453125 L 1.984375 -19.609375 C 1.492188 -20.109375 1.25 -20.707031 1.25 -21.40625 L 1.25 -24.90625 L 6.21875 -24.90625 L 6.21875 -22.40625 L 13.6875 -14.9375 L 21.171875 -22.40625 L 21.171875 -24.90625 Z M 26.140625 -24.90625 "/></g></g></g></svg>